<svg width="51" height="50" viewBox="0 0 51 50" fill="none" xmlns="http://www.w3.org/2000/svg">
<path fill-rule="evenodd" clip-rule="evenodd" d="M0.5 6.10465H10.7151V38.0814H0.5V6.10465ZM2.1129 7.84884V36.3372H9.10215V7.84884H2.1129Z" fill="#0070F0"/>
<path fill-rule="evenodd" clip-rule="evenodd" d="M6.41398 37.2093V50H4.80107V37.2093H6.41398Z" fill="#0070F0"/>
<path fill-rule="evenodd" clip-rule="evenodd" d="M6.41398 0V6.97674H4.80107V0H6.41398Z" fill="#0070F0"/>
<path fill-rule="evenodd" clip-rule="evenodd" d="M14.4785 21.3503H24.6936V36.9834H14.4785V21.3503ZM16.0914 23.0945V35.2392H23.0807V23.0945H16.0914Z" fill="#0070F0"/>
<path fill-rule="evenodd" clip-rule="evenodd" d="M20.3925 36.1113V44.4446H18.7796V36.1113H20.3925Z" fill="#0070F0"/>
<path fill-rule="evenodd" clip-rule="evenodd" d="M20.3925 15.278V22.2224H18.7796V15.278H20.3925Z" fill="#0070F0"/>
<path fill-rule="evenodd" clip-rule="evenodd" d="M27.3818 8.85013H37.5969V30.0388H27.3818V8.85013ZM28.9947 10.5943V28.2946H35.984V10.5943H28.9947Z" fill="#0070F0"/>
<path fill-rule="evenodd" clip-rule="evenodd" d="M33.2958 29.1667V34.7222H31.6829V29.1667H33.2958Z" fill="#0070F0"/>
<path fill-rule="evenodd" clip-rule="evenodd" d="M33.2958 0V9.72222H31.6829V0H33.2958Z" fill="#0070F0"/>
<path fill-rule="evenodd" clip-rule="evenodd" d="M40.2849 26.9059H50.5V39.7612H40.2849V26.9059ZM41.8978 28.6501V38.017H48.8871V28.6501H41.8978Z" fill="#0070F0"/>
<path fill-rule="evenodd" clip-rule="evenodd" d="M46.1989 38.8891V48.6113H44.586V38.8891H46.1989Z" fill="#0070F0"/>
<path fill-rule="evenodd" clip-rule="evenodd" d="M46.1989 15.278V27.778H44.586V15.278H46.1989Z" fill="#0070F0"/>
</svg>
