<?xml version="1.0" encoding="utf-8"?>
<!-- Generator: Adobe Illustrator 21.1.0, SVG Export Plug-In . SVG Version: 6.00 Build 0)  -->
<svg version="1.1" id="Layer_1" xmlns="http://www.w3.org/2000/svg" xmlns:xlink="http://www.w3.org/1999/xlink" x="0px" y="0px"
	 viewBox="0 0 20 24" style="enable-background:new 0 0 20 24;" xml:space="preserve">
<style type="text/css">
	.st0{fill:#FFFFFF;}
</style>
<path class="st0" d="M15,4.2v2.1l0,0V24c0,0,2.9,0,3.7,0c0.7,0,1.3-0.6,1.3-1.4V0c-0.7,0.2-1.4,0.3-2.1,0.6C16,1.2,15,2.2,15,4.2z"
	/>
<path class="st0" d="M12.4,22.6V8.6l0,0V6.5c0-2.1-1-3-2.9-3.7C8.8,2.6,8.1,2.5,7.4,2.3V24c0,0,2.9,0,3.7,0
	C11.8,23.9,12.4,23.4,12.4,22.6z"/>
<path class="st0" d="M5,22.6V8.6l0,0V6.5c0-2.1-1-3-2.9-3.7C1.4,2.6,0.7,2.5,0,2.3V24c0,0,2.9,0,3.7,0C4.4,23.9,5,23.4,5,22.6z"/>
</svg>
