<svg width="68" height="40" viewBox="0 0 68 40" fill="none" xmlns="http://www.w3.org/2000/svg">
<g clip-path="url(#clip0_1_2)">
<path fill-rule="evenodd" clip-rule="evenodd" d="M27.4267 24.8026C27.7974 24.8026 28.1531 24.6559 28.4161 24.3946C28.6791 24.1332 28.828 23.7784 28.8303 23.4077V9.11026V6.90462C28.8303 4.74256 27.7492 3.71385 25.7179 3.06C24.9159 2.80718 24.1487 2.60667 23.4077 2.44974V24.8026H27.4267ZM35.4297 24.8026C35.8005 24.8026 36.1562 24.6559 36.4192 24.3946C36.6821 24.1332 36.831 23.7784 36.8333 23.4077V9.11026V6.90462C36.8333 4.74256 35.7523 3.71385 33.721 3.06C32.919 2.80718 32.1518 2.60667 31.4108 2.44974V24.8026H35.4297ZM44.8626 23.4077V0.0610256C44.1303 0.217949 43.3631 0.418462 42.561 0.671282C40.5297 1.32513 39.44 2.35385 39.44 4.5159V6.71282V24.8026H43.4677C43.8376 24.8026 44.1924 24.6556 44.454 24.394C44.7156 24.1324 44.8626 23.7776 44.8626 23.4077V23.4077ZM67.6077 18.9267L65.7682 19.4672C63.8829 20.0888 61.9258 20.4667 59.9446 20.5918C55.5856 20.5918 53.4149 17.9764 53.4149 12.5626C53.4149 7.14872 55.6205 4.48103 59.9446 4.48103C61.9218 4.63645 63.8753 5.01369 65.7682 5.60564L67.6077 6.14615V1.53436L66.4395 1.21179C64.1776 0.492882 61.8283 0.0852084 59.4564 0C52.639 0 48.001 4.30667 48.001 12.5626C48.001 21.1323 52.639 25.1251 59.4564 25.1251C61.827 25.0217 64.1729 24.5995 66.4308 23.8697L67.6077 23.5385V18.9267ZM19.659 18.9267L17.8108 19.4672C15.9254 20.0888 13.9684 20.4667 11.9872 20.5918C7.62821 20.5918 5.45744 17.9764 5.45744 12.5626C5.45744 7.14872 7.61949 4.48103 11.9436 4.48103C13.9208 4.63645 15.8743 5.01369 17.7672 5.60564L19.6154 6.14615V1.53436L18.4385 1.21179C16.1793 0.49366 13.8331 0.0859956 11.4641 0C4.64667 0 0 4.30667 0 12.5626C0 21.1323 4.64667 25.1251 11.4554 25.1251C13.826 25.0217 16.1719 24.5995 18.4297 23.8697L19.6154 23.5385L19.659 18.9267Z" fill="white"/>
<path d="M1.95282 39.0651H2.9641V34.1046C2.9641 33.381 2.90308 32.0036 2.90308 32.0036C2.90308 32.0036 3.24308 33.2328 3.46974 33.878L5.45744 39.1087H6.32923L8.31692 33.878C8.55231 33.2328 8.88359 32.0036 8.88359 32.0036C8.88359 32.0036 8.81385 33.381 8.81385 34.1046V39.0651H9.93846V30.8615H8.44769L6.78256 35.3164C6.45128 36.1882 5.91077 37.9318 5.91077 37.9318C5.91077 37.9318 5.41385 36.2579 5.03897 35.3164L3.4 30.8615H1.95282V39.0651Z" fill="white"/>
<path d="M13.1728 39.0651H14.3323L15.1605 36.6764H18.3774L19.1795 39.0651H20.4087L17.4359 30.8615H16.1631L13.1728 39.0651ZM16.2677 33.5031C16.5292 32.7359 16.7733 31.7595 16.7733 31.7595C16.7733 31.7595 16.9913 32.701 17.2703 33.5031L18.0462 35.7872H15.4308L16.2677 33.5031Z" fill="white"/>
<path d="M23.6692 39.0651H24.7851V35.6477H26.9559C28.0195 35.6477 28.5077 36.0662 28.5774 37.2256C28.6646 38.5333 28.6908 38.9082 28.8738 39.0651H30.0682V39.0128C29.9113 38.8995 29.7979 38.5072 29.7021 37.2169C29.6062 35.9267 29.362 35.4733 28.4379 35.2031C28.8979 35.1008 29.3041 34.8327 29.5791 34.45C29.8541 34.0673 29.9785 33.5968 29.9287 33.1282C29.935 32.8137 29.8748 32.5015 29.752 32.2119C29.6291 31.9224 29.4465 31.662 29.216 31.448C28.9855 31.234 28.7124 31.0711 28.4145 30.97C28.1167 30.869 27.8008 30.832 27.4877 30.8615H23.6692V39.0651ZM24.7851 31.838H27.1738C28.3246 31.838 28.7779 32.3349 28.7779 33.2939C28.7779 34.2528 28.2287 34.741 27.1215 34.741H24.7851V31.838Z" fill="white"/>
<path d="M33.5379 39.0651H34.6626V36.101L35.9005 34.8718L38.9169 39.0564H40.2246L36.6764 34.1395L39.9544 30.8441H38.5508L34.619 34.8718C34.619 34.4795 34.619 33.9128 34.619 33.3636V30.8615H33.5379V39.0651Z" fill="white"/>
<path d="M43.2585 39.0651H49.1779V38.0364H44.3744V35.2728H48.6113V34.34H44.3744V31.8554H49.0559V30.8615H43.2585V39.0651Z" fill="white"/>
<path d="M52.2554 31.8554H54.9231V39.0651H56.0564V31.8554H58.7415V30.8615H52.2554V31.8554Z" fill="white"/>
<path d="M64.9574 39.2308C66.701 39.2308 68 38.359 68 36.8072C68 34.9764 66.5615 34.5667 64.9836 34.2441C63.7544 33.9913 62.8651 33.7385 62.8651 32.8492C62.8651 31.96 63.5713 31.5939 64.6087 31.5939C64.8445 31.5518 65.0864 31.5588 65.3194 31.6144C65.5523 31.67 65.7713 31.773 65.9627 31.9169C66.1541 32.0609 66.3138 32.2428 66.4318 32.4512C66.5499 32.6595 66.6237 32.89 66.6487 33.1282H67.7385C67.5379 31.7246 66.64 30.7133 64.6349 30.7133C62.9523 30.7133 61.8015 31.5241 61.8015 32.9015C61.8015 34.4795 63.0395 34.898 64.5041 35.2031C65.9687 35.5082 66.8667 35.7785 66.8667 36.8508C66.8667 37.9231 66.0821 38.359 64.9923 38.359C63.5103 38.359 62.6995 37.679 62.5687 36.441H61.4615C61.5487 37.9754 62.6821 39.2308 64.9574 39.2308Z" fill="white"/>
</g>
<defs>
<clipPath id="clip0_1_2">
<rect width="68" height="39.2308" fill="white"/>
</clipPath>
</defs>
</svg>
