<?xml version="1.0" encoding="UTF-8"?>
<svg width="32px" height="32px" viewBox="0 0 32 32" version="1.1" xmlns="http://www.w3.org/2000/svg" xmlns:xlink="http://www.w3.org/1999/xlink">
    <!-- Generator: Sketch 56.3 (81716) - https://sketch.com -->
    <title>element/icon/32px/white/commoditites</title>
    <desc>Created with Sketch.</desc>
    <g id="element/icon/32px/white/commoditites" stroke="none" stroke-width="1" fill="none" fill-rule="evenodd">
        <g id="-_Commoditites-32px-white" transform="translate(2.000000, 2.000000)" stroke="#FFFFFF">
            <path d="M11.92,9.64 L11.92,9.64 C11.0059233,8.68785218 10.7823863,7.26679575 11.36,6.08 L14,0.61 L16.67,6.08 C17.2476137,7.26679575 17.0240767,8.68785218 16.11,9.64 L16.11,9.64 C15.5629518,10.2115364 14.8061482,10.5347631 14.015,10.5347631 C13.2238518,10.5347631 12.4670482,10.2115364 11.92,9.64 L11.92,9.64 Z" id="Path"></path>
            <path d="M8,15.54 L8,15.54 C6.68031755,15.5075187 5.51988026,14.6581265 5.09,13.41 L3.09,7.66 L8.85,9.66 C10.0973239,10.0891697 10.9518506,11.2417872 11,12.56 L11,12.56 C11.0167231,13.35885 10.7053568,14.1296562 10.1384744,14.6927594 C9.57159192,15.2558627 8.79872026,15.5620661 8,15.54 Z" id="Path"></path>
            <path d="M19.94,15.5400729 L19.94,15.5400729 C21.2606658,15.5104115 22.4225799,14.6599383 22.85,13.41 L24.85,7.66 L19.1,9.66 C17.8723496,10.1056382 17.0403488,11.2545917 17,12.56 L17,12.56 C16.9837799,13.3482563 17.2870068,14.1095733 17.8407266,14.6708268 C18.3944465,15.2320802 19.1515965,15.545567 19.94,15.5400729 L19.94,15.5400729 Z" id="Path"></path>
            <path d="M14,13 L14,27" id="Path" stroke-width="1.03"></path>
            <path d="M28,27.5 L0,27.5" id="Path"></path>
        </g>
    </g>
</svg>