<?xml version="1.0" encoding="UTF-8"?>
<svg width="32px" height="32px" viewBox="0 0 32 32" version="1.1" xmlns="http://www.w3.org/2000/svg" xmlns:xlink="http://www.w3.org/1999/xlink">
    <title>element/icon/32px/white/ETFs</title>
    <g id="element/icon/32px/white/ETFs" stroke="none" stroke-width="1" fill="none" fill-rule="evenodd">
        <g id="Group" transform="translate(2.000000, 16.500000)">
            <circle id="Oval" stroke="#FFFFFF" cx="6.75" cy="6.75" r="6.75"></circle>
            <path d="M6.36,11.41 L6.36,10.27 C5.74797886,10.2680002 5.14872474,10.0948054 4.63,9.77 L4.9,9.01 C5.38571998,9.32374447 5.9517619,9.49043166 6.53,9.49 C7.34,9.49 7.89,9.03 7.89,8.38 C7.89,7.73 7.44,7.38 6.6,7.03 C5.44,6.57 4.73,6.03 4.73,5.03 C4.74699457,4.07199561 5.48534561,3.28183046 6.44,3.2 L6.44,2.09 L7.15,2.09 L7.15,3.19 C7.66708692,3.18847345 8.17498126,3.326676 8.62,3.59 L8.34,4.34 C7.90926172,4.07864882 7.41378358,3.94351842 6.91,3.95 C6.03,3.95 5.7,4.47 5.7,4.95 C5.7,5.43 6.13,5.83 7.11,6.24 C8.28,6.72 8.87,7.31 8.87,8.32 C8.84044964,9.32065549 8.07560387,10.1453216 7.08,10.25 L7.08,11.43 L6.36,11.41 Z" id="Path" fill="#FFFFFF"></path>
        </g>
        <g id="Group-2" transform="translate(5.000000, 2.000000)" stroke="#FFFFFF">
            <line x1="4" y1="8" x2="4" y2="11.9800654" id="Path-7"></line>
            <circle id="Oval" cx="4" cy="4" r="4"></circle>
        </g>
        <g id="Group-2-Copy" transform="translate(24.000000, 23.000000) rotate(90.000000) translate(-24.000000, -23.000000) translate(20.000000, 17.000000)" stroke="#FFFFFF">
            <line x1="4" y1="8" x2="4" y2="11.9800654" id="Path-7"></line>
            <circle id="Oval" cx="4" cy="4" r="4"></circle>
        </g>
        <g id="Group-2-Copy-2" transform="translate(20.000000, 12.000000) rotate(45.000000) translate(-20.000000, -12.000000) translate(16.000000, 6.000000)" stroke="#FFFFFF">
            <line x1="4" y1="8" x2="4" y2="11.9800654" id="Path-7"></line>
            <circle id="Oval" cx="4" cy="4" r="4"></circle>
        </g>
    </g>
</svg>