<svg xmlns="http://www.w3.org/2000/svg" width="32" height="32" viewBox="0 0 32 32">
  <g fill="none" fill-rule="evenodd">
    <rect width="32" height="32" fill="#FFF" opacity="0"/>
    <g stroke="#FFF" transform="translate(2 2)">
      <path stroke-width=".96" d="M12.59,21.74 C12.1192743,21.8034912 11.6449781,21.8368923 11.17,21.84 C5.27712172,21.84 0.5,17.0628783 0.5,11.17 C0.5,5.27712172 5.27712172,0.5 11.17,0.5 C17.0628783,0.5 21.8400019,5.27712172 21.8400019,11.17 C21.8402263,11.5341648 21.8201953,11.8980602 21.78,12.26"/>
      <path fill="#FFF" fill-rule="nonzero" stroke-width=".25" d="M8.81,14.92 L8.81,14.35 C9.5885211,13.9849256 10.0924248,13.2096892 10.11,12.35 C10.1091858,12.0822405 10.0891342,11.8148855 10.05,11.55 L8.88,11.55 L8.88,10.84 L9.94,10.84 C9.86227886,10.4343668 9.81879243,10.0229183 9.81,9.61 C9.781296,9.01994927 10.002447,8.4450975 10.4192167,8.02642479 C10.8359863,7.60775208 11.4098246,7.38398444 12,7.41 C12.432098,7.39121593 12.8610489,7.49153509 13.24,7.7 L13.01,8.45 C12.7023405,8.28767377 12.357663,8.20839795 12.01,8.22 C11.13,8.22 10.76,8.83 10.76,9.64 C10.7648185,10.0503845 10.8117309,10.4591918 10.9,10.86 L12.53,10.86 L12.53,11.57 L11,11.57 C11.0538076,11.9931799 11.0369107,12.4223602 10.95,12.84 C10.8294378,13.3233833 10.5558329,13.7548372 10.17,14.07 L10.17,14.07 L13.55,14.07 L13.55,14.9 L8.81,14.92 Z"/>
      <circle cx="20.75" cy="20.75" r="6.75" stroke-width=".96"/>
      <path fill="#FFF" fill-rule="nonzero" stroke-width=".25" d="M22.94,24.09 C22.4371871,24.415059 21.8486105,24.5822287 21.25,24.57 C20.3706317,24.5914439 19.5261584,24.225871 18.94,23.57 C18.4770187,23.0171112 18.1912777,22.3376051 18.12,21.62 L17.42,21.62 L17.42,21.06 L18.07,21.06 L18.07,20.89 C18.07,20.71 18.07,20.54 18.07,20.38 L17.4,20.38 L17.4,19.8 L18.15,19.8 C18.2641943,19.0823919 18.587718,18.4144719 19.08,17.88 C19.6630891,17.2622433 20.4807406,16.9206467 21.33,16.94 C21.8550686,16.9358694 22.3732742,17.0594151 22.84,17.3 L22.61,18.05 C22.2190491,17.8414856 21.7830781,17.7316346 21.34,17.73 C20.7733169,17.7179582 20.2281376,17.9469335 19.84,18.36 C19.4715979,18.7592948 19.234294,19.2618208 19.16,19.8 L22.33,19.8 L22.33,20.37 L19.08,20.37 C19.08,20.52 19.08,20.69 19.08,20.84 L19.08,21.05 L22.37,21.05 L22.37,21.61 L19.13,21.61 C19.1895724,22.1546354 19.4087485,22.6695253 19.76,23.09 C20.1766064,23.5254805 20.7575252,23.7651095 21.36,23.75 C21.8464823,23.7412117 22.323527,23.6142286 22.75,23.38 L22.94,24.09 Z"/>
    </g>
  </g>
</svg>
